<svg width="32" height="32" viewBox="0 0 32 32" fill="none" xmlns="http://www.w3.org/2000/svg">
    <circle cx="16" cy="16" r="16" fill="#55ACEE" />
    <path fill-rule="evenodd" clip-rule="evenodd" d="M23.3289 9.8799C22.8773 10.1692 21.8404 10.5895 21.3291 10.5895V10.5904C20.7452 9.98041 19.9231 9.59961 19.0115 9.59961C17.2408 9.59961 15.805 11.0354 15.805 12.8054C15.805 13.0513 15.8335 13.2912 15.8861 13.5212H15.8856C13.4837 13.4582 10.8568 12.2543 9.27541 10.1939C8.30312 11.8768 9.14451 13.7485 10.2479 14.4305C9.87019 14.459 9.1749 14.387 8.84764 14.0677C8.82571 15.1847 9.3628 16.6647 11.3212 17.2016C10.944 17.4045 10.2764 17.3463 9.98607 17.3032C10.088 18.2461 11.4084 19.4788 12.8523 19.4788C12.3377 20.0741 10.4014 21.1538 8.22852 20.8103C9.70422 21.7082 11.4241 22.2282 13.2445 22.2282C18.4177 22.2282 22.4352 18.0356 22.219 12.8634C22.2181 12.8577 22.2181 12.852 22.2176 12.8458C22.2181 12.8325 22.219 12.8192 22.219 12.8054C22.219 12.7893 22.2176 12.7742 22.2171 12.7586C22.688 12.4365 23.3199 11.8668 23.7714 11.1169C23.5096 11.2611 22.7241 11.5499 21.9933 11.6216C22.4623 11.3684 23.1573 10.5393 23.3289 9.8799Z" fill="white" />
</svg>
