<svg width="32" height="38" viewBox="0 0 32 38" fill="none" xmlns="http://www.w3.org/2000/svg">
<path fill-rule="evenodd" clip-rule="evenodd" d="M12.0869 37.0001V28.8262C12.0869 27.7216 12.9823 26.8262 14.0869 26.8262H17.913C19.0176 26.8262 19.913 27.7216 19.913 28.8262V37.0001" fill="#E1F4F5"/>
<path d="M12.0869 37.0001V28.8262C12.0869 27.7216 12.9823 26.8262 14.0869 26.8262H17.913C19.0176 26.8262 19.913 27.7216 19.913 28.8262V37.0001" stroke="#E18D53" stroke-width="2"/>
<path fill-rule="evenodd" clip-rule="evenodd" d="M24.6086 37H7.39124C3.94776 37 1.13037 34.1826 1.13037 30.7391V13.987C1.13037 13.692 1.2606 13.4121 1.48624 13.2221L15.3558 1.54243C15.728 1.22898 16.2718 1.22898 16.6441 1.54243L30.5136 13.2221C30.7393 13.4121 30.8695 13.692 30.8695 13.987V30.7391C30.8695 34.1826 28.0521 37 24.6086 37Z" stroke="#E18D53" stroke-width="2"/>
<path d="M19.2023 11.576C18.2536 11.1098 17.1467 10.8767 16.0399 10.8379C14.3006 10.8379 12.7386 12.0228 12.7386 13.1106C12.7386 14.2373 13.8454 15.1696 16.1118 15.8689C18.6944 16.6848 19.4658 17.3258 19.4658 18.5302C19.4658 20.0842 17.3575 20.9 15.5128 20.9C14.3006 20.9 13.0883 20.6281 12.0869 20.123" stroke="#E18D53" stroke-width="2"/>
<path d="M16.1118 8.82617V22.9131" stroke="#E18D53" stroke-width="2"/>
</svg>
