<svg width="32" height="32" viewBox="0 0 32 32" fill="none" xmlns="http://www.w3.org/2000/svg">
    <circle cx="16" cy="16" r="16" fill="#0976B4" />
    <path fill-rule="evenodd" clip-rule="evenodd" d="M9.76704 11.8705C10.8686 11.8705 11.7615 11.0561 11.7615 10.0505C11.7615 9.04394 10.8686 8.22852 9.76704 8.22852C8.66446 8.22852 7.77148 9.04394 7.77148 10.0505C7.77148 11.0561 8.66446 11.8705 9.76704 11.8705Z" fill="white" />
    <path fill-rule="evenodd" clip-rule="evenodd" d="M8.22852 23.579H11.8072V13.2578H8.22852V23.579Z" fill="white" />
    <path fill-rule="evenodd" clip-rule="evenodd" d="M16.8299 17.8387C16.8299 16.6551 17.3899 15.4976 18.7289 15.4976C20.0679 15.4976 20.3972 16.6551 20.3972 17.8104V23.4473H23.9598V17.5799C23.9598 13.5036 21.5502 12.8008 20.0679 12.8008C18.5869 12.8008 17.77 13.3017 16.8299 14.5156V13.1261H13.2571V23.4473H16.8299V17.8387Z" fill="white" />
</svg>
