<svg width="40" height="38" viewBox="0 0 40 38" fill="none" xmlns="http://www.w3.org/2000/svg">
    <path fill-rule="evenodd" clip-rule="evenodd" d="M27.078 27C27.078 27 25.1107 27 24.1271 27C22.1654 27 19.4125 27 15.8685 27C15.0189 27 13.1832 27 13.1832 27C10.4043 27 8.13062 24.7304 8.13062 21.9565V11.5527C8.13062 11.2574 8.26112 10.9773 8.48716 10.7873L19.4872 1.54087C19.8591 1.22819 20.4021 1.22819 20.7741 1.54087L31.7741 10.7873C32.0001 10.9773 32.1306 11.2574 32.1306 11.5527V21.9565C32.1306 24.7304 29.8569 27 27.078 27Z" stroke="#6C57BE" stroke-width="2"/>
    <path d="M23.1156 11.7499C22.1669 11.2837 21.06 11.0506 19.9532 11.0117C18.2139 11.0117 16.6519 12.1966 16.6519 13.2844C16.6519 14.4111 17.7587 15.3435 20.0251 16.0428C22.6077 16.8586 23.3791 17.4996 23.3791 18.704C23.3791 20.258 21.2709 21.0738 19.4262 21.0738C18.2139 21.0738 17.0017 20.8019 16.0002 20.2968" stroke="#6C57BE" stroke-width="2"/>
    <path d="M20.0251 9V23.087" stroke="#6C57BE" stroke-width="2"/>
    <path d="M0.101318 10.9991L8.10129 11.0204" stroke="#6C57BE" stroke-width="2"/>
    <path d="M27 26.9991L39 27.0204" stroke="#6C57BE" stroke-width="2"/>
    <circle cx="14.1306" cy="34" r="3" fill="white" stroke="#6C57BE" stroke-width="2"/>
    <circle cx="26.1306" cy="34" r="3" fill="white" stroke="#6C57BE" stroke-width="2"/>
    </svg>
