<svg width="32" height="38" viewBox="0 0 32 38" fill="none" xmlns="http://www.w3.org/2000/svg">
    <path d="M29.3043 4.13086V32.3048C29.3043 34.8874 27.1912 37.0004 24.6086 37.0004H7.39121C4.8086 37.0004 2.69556 34.8874 2.69556 32.3048V4.13086" stroke="#CE5B98" stroke-width="2" stroke-linecap="round" />
    <rect x="14.4348" y="10.8262" width="3.13043" height="8.26087" stroke="#CE5B98" stroke-width="2" stroke-linecap="round" />
    <rect x="7.39136" y="10.8262" width="3.13043" height="8.26087" stroke="#CE5B98" stroke-width="2" stroke-linecap="round" />
    <rect x="21.4783" y="10.8262" width="3.13043" height="8.26087" stroke="#CE5B98" stroke-width="2" stroke-linecap="round" />
    <path fill-rule="evenodd" clip-rule="evenodd" d="M12.8694 36.2181V28.6094C12.8694 28.0571 13.3171 27.6094 13.8694 27.6094H18.1303C18.6825 27.6094 19.1303 28.0571 19.1303 28.6094V36.2181" fill="white" />
    <path d="M12.8694 36.2181V28.6094C12.8694 28.0571 13.3171 27.6094 13.8694 27.6094H18.1303C18.6825 27.6094 19.1303 28.0571 19.1303 28.6094V36.2181" stroke="#CE5B98" stroke-width="2" stroke-linecap="round" />
    <rect x="1.13037" y="1" width="29.7391" height="3.13043" stroke="#CE5B98" stroke-width="2" stroke-linecap="round" />
</svg>
